<svg width="580" height="400" xmlns="http://www.w3.org/2000/svg">
 <!-- Created with Method Draw - http://github.com/duopixel/Method-Draw/ -->

 <g>
  <title>background</title>
  <rect fill="#fff" id="canvas_background" height="402" width="582" y="-1" x="-1"/>
  <g display="none" overflow="visible" y="0" x="0" height="100%" width="100%" id="canvasGrid">
   <rect fill="url(#gridpattern)" stroke-width="0" y="0" x="0" height="100%" width="100%"/>
  </g>
 </g>
 <g>
  <title>Layer 1</title>
  <!-- Generator: Sketch 41.2 (35397) - http://www.bohemiancoding.com/sketch -->
  <desc transform="matrix(17.361109786563475,0,0,17.361109786563475,0,0) ">Created with Sketch.</desc>
  <defs>
   <filter id="svg_15" filterUnits="objectBoundingBox" height="200%" width="200%" y="-50%" x="-50%">
    <feGaussianBlur stdDeviation="2"/>
   </filter>
  </defs>
  <g id="svg_21">
   <g transform="matrix(17.361109786563475,0,0,17.361109786563475,0,0) " fill-rule="evenodd" fill="none" id="svg_11">
    <g fill="#000000" id="svg_12">
     <g id="svg_13">
      <g filter="url(#svg_15)" id="svg_14">
       <g id="svg_16">
        <g id="svg_17">
         <path fill="#ffffff" id="svg_19" d="m24.76206,6.38168l-0.89377,0.69225l-1.43974,1.11502c-0.19378,-0.96918 -0.75477,-1.80232 -1.53071,-2.34407l2.77164,-2.14655l-0.85833,-1.1391c-0.35079,-0.46577 -0.26291,-1.13188 0.19648,-1.48774l2.08946,2.77135c0.30937,0.41053 0.41741,0.91208 0.34296,1.38492c-0.0696,0.44259 -0.29892,0.86031 -0.67799,1.15392l0,0z"/>
         <path fill="#ffffff" id="svg_18" d="m15.97694,16.07128c3.09137,-1.62052 5.84425,-2.07875 6.53865,-0.96578c0.57032,0.91394 -0.39996,2.64724 -2.29928,4.42235l1.80295,2.93234l1.22796,0c0.56481,0.01571 1.01823,0.48356 1.01823,1.05981l-1.59461,0l-2.11409,0l-0.65158,-1.05981l-1.04482,-1.69943l-0.40836,-0.66385c0.14405,-0.23912 0.22774,-0.51949 0.22774,-0.8201c0,-0.87079 -0.69627,-1.57685 -1.55534,-1.57685c-0.04767,0 -0.09423,0.00457 -0.14078,0.0087l-1.00667,-1.63738l0,0z"/>
         <path fill="#ffffff" id="Shape" d="m7.33037,5.97286c0.1614,-0.78774 0.84955,-1.37991 1.67448,-1.37991c0.23547,0 0.45976,0.04843 0.6637,0.13555c0.61492,0.2629 1.04678,0.87952 1.04678,1.5987l0,8.22399c0,0.5859 0.46853,1.06123 1.04678,1.06123c0.42095,0 0.78304,-0.25266 0.9492,-0.61596c0.01474,-0.03226 0.02799,-0.06558 0.03955,-0.09944l0.97196,-2.44234l-1.88663,-6.45382c-0.0013,-0.00414 -0.00308,-0.00849 -0.00438,-0.01287c-0.02295,-0.07227 -0.04311,-0.14453 -0.06279,-0.21699c-0.68713,-2.52891 0.54942,-5.16887 2.86157,-6.251l4.44369,1.56644c0.5455,0.1889 0.83714,0.7892 0.65363,1.34256l-1.12534,-0.40797c-0.44483,-0.1613 -0.93426,0.07357 -1.09333,0.52439c-0.15907,0.45083 0.07258,0.94724 0.51732,1.10845l1.16107,0.42091c-0.20273,0.5439 -0.80001,0.822 -1.33954,0.62121l-1.22619,-0.45662c-0.08705,0.50022 0.19023,1.00598 0.67789,1.18259l2.349,0.86665c0.99099,0.42944 1.69388,1.40714 1.74258,2.55662c0.00178,0.04219 0.00467,0.08419 0.00467,0.12678c0,0.02608 -0.00261,0.05164 -0.00336,0.07756c0.00467,-0.01194 0.00765,-0.01986 0.00765,-0.01986l3.66653,0l0,-1.43347c0,-0.4006 0.48859,-0.74898 0.79824,-0.92965l0.24854,-0.13167l0,3.51295c-0.01325,0.98886 -0.80682,1.78655 -1.78531,1.78655l-4.13562,0c-0.36628,0 -0.7223,0.04418 -1.06339,0.12706c0.01667,-0.00409 0.03308,-0.01019 0.04966,-0.01501c-0.01787,0.00532 -0.03576,0.01061 -0.05395,0.01501c-0.01064,0.00263 -0.02137,0.00547 -0.03209,0.00821c-1.84316,0.46246 -3.24297,2.06458 -3.42938,4.02689c-0.00317,0.03424 -0.00522,0.06884 -0.00774,0.10346c-0.0083,0.1137 -0.01381,0.22796 -0.01381,0.34374c0,1.10464 0.38354,2.11829 1.02262,2.91232c0.04683,0.05824 0.09507,0.1154 0.14461,0.17118c0.13052,0.18862 0.20786,0.41791 0.20786,0.66593c0,0.6419 -0.51341,1.16234 -1.14661,1.16234c-0.22782,0 -0.43998,-0.06735 -0.61836,-0.18329l-2.32149,-1.38918c-0.32028,0.18162 -0.53691,0.52818 -0.53691,0.92662c0,0.26332 0.0946,0.50453 0.25134,0.68993l0.96337,1.06056l1.17516,0l0.00056,0l0.05691,0c0.56462,0.01571 1.01804,0.48356 1.01804,1.05981l-2.09319,0l-0.00037,0l-1.26379,0c0,-1.0004 -0.79982,-1.81124 -1.78643,-1.81124l0,-3.08956c0.81867,-0.16534 1.43583,-0.89727 1.43583,-1.77586c0,-0.04406 -0.00205,-0.08778 -0.00513,-0.13127c-0.10468,0.01587 -0.21067,0.02684 -0.31973,0.02684c-0.40695,0 -0.78611,-0.11635 -1.11097,-0.31497c-0.62657,-0.38293 -1.04678,-1.07721 -1.04678,-1.87275l0,-8.22399c0,-0.38319 -0.30638,-0.69371 -0.68423,-0.69371c-0.36451,0 -0.66165,0.28923 -0.68218,0.65381c0.47003,0.32623 0.77865,0.87384 0.77865,1.495c0,1.00031 -0.79973,1.81115 -1.78643,1.81115l0,-3.26625c0,-0.12146 0.0125,-0.23979 0.03601,-0.35434l0,0z"/>
        </g>
       </g>
      </g>
     </g>
    </g>
   </g>
  </g>
 </g>
</svg>